<svg xmlns="http://www.w3.org/2000/svg" viewBox="0 0 75 75" style="enable-background:new 0 0 75 75;"><path style="fill:#F78E1E;" d="M36.58 47.97c-.05.02-.1.04-.16.05.06-.01.11-.03.16-.05zM37.13 47.47c-.03.06-.06.11-.09.15l.09-.15zM36.9 47.78c-.04.04-.09.07-.13.1.05-.03.09-.07.13-.1zM16.76 23.63l-1.09 2.23c-.65.63-1.25 1.05-.62 1.7l.75.77c.14.15.28.23.41.26.43.11.81-.35 1.31-.84l2.26-1.02c.65-.63.66-1.66.03-2.3l-.74-.77c-.22-.23-.49-.37-.77-.44-.54-.13-1.12 0-1.54.41zM29.37 20.19l-.32-1.02c-.1-.32-.26-.48-.47-.53-.34-.08-.79.11-1.32.28l-2.48-.09c-.86.27-1.33 1.19-1.06 2.05l.32 1.02c.18.56.63.95 1.16 1.09.28.07.59.07.89-.03l1.97-1.51c.85-.29 1.58-.4 1.31-1.26zM58.21 44.19c.06.01.12.04.17.07l1.49-2.76c-.27-.15-.56-.27-.87-.35-.05-.01-.11-.01-.16-.02l-.63 3.06zM57.46 44.78c.01-.21.11-.41.3-.52.07-.04.15-.07.23-.08l-.47-3.1c-.48.07-.95.24-1.38.5-1.13.68-1.77 1.86-1.83 3.08l3.15.12z"/><path style="fill:#F78E1E;" d="M61.32 42.87c-.23-.38-.52-.69-.84-.96l-1.99 2.41c.05.05.11.1.14.16.18.3.08.7-.22.88-.3.18-.7.08-.88-.22-.04-.07-.07-.15-.08-.23l-3.09.48c.07.47.23.93.49 1.36.52.86 1.34 1.47 2.32 1.72.98.24 1.99.09 2.86-.42.86-.52 1.47-1.34 1.72-2.32.24-.98.09-2-.43-2.86z"/><g><path style="fill:#F78E1E;" d="M60.44 48.74c-1.05.63-2.29.81-3.47.52-1.19-.3-2.19-1.04-2.82-2.09-.81-1.35-.84-2.96-.22-4.29.12-.26.26-.5.43-.73.01-.01.01-.02.02-.04.17-.24.37-.47.6-.67.23-.21.48-.4.75-.56.23-.14.48-.25.73-.34-.6.02-1.2.15-1.78.39-.62-1-1.97-2.81-3.98-3.41-1.38-.42-2.8-.19-4.21.65-1.4.84-2.26 1.98-2.56 3.39-.61 2.89 1.41 5.82 1.47 5.89l2.78 4.63c.01.02 1.35 1.98.96 3.78-.19.86-.73 1.54-1.65 2.1-.81.49-1.57.6-2.31.39-1.77-.53-2.89-2.84-2.93-2.93l-3.46-5.77c-.13.22-.35.43-.62.59-.26.15-.52.24-.77.27l3.41 5.69c.06.12 1.43 2.98 3.89 3.73l.21.06c1.13.28 2.28.08 3.42-.61 1.32-.79 2.13-1.85 2.41-3.16.53-2.5-1.14-4.95-1.18-5l-2.78-4.63c-.48-.68-1.63-2.84-1.24-4.66.21-.96.8-1.73 1.81-2.33 1.02-.61 1.96-.76 2.9-.49 1.48.44 2.55 1.87 3.06 2.7-1.88 1.61-2.38 4.37-1.07 6.56 1.46 2.44 4.63 3.24 7.07 1.77.78-.47 1.38-1.1 1.81-1.84-.23.14-.44.3-.68.44zM37.62 47.82c.01-.02.02-.03.03-.04l-.38-.63 3.96-10.65c1.99-3.52.61-5.4.07-5.95l-5.21-8.69c-1.69-2.82-4.37-3.39-6.79-3.08.04.08.09.17.12.28l.32 1.02c.08.26.1.49.05.69 1.6-.16 3.39.21 4.55 2.14l5.28 8.81.11.16.12.1c.02.02.19.18.29.53-1.18 2.82-4.07 5.84-7.79 8.07-3.72 2.23-7.75 3.36-10.8 3.06-.25-.25-.31-.46-.32-.47l-.03-.19L15.83 34c-1.15-1.93-.64-3.68.26-5.02-.21-.05-.4-.18-.6-.37l-.74-.77c-.07-.08-.14-.16-.19-.23-1.41 1.99-2.18 4.62-.49 7.44l5.21 8.69c.18.57.83 1.97 3.02 2.52.62.16 1.37.24 2.26.22l11.32 1.54.37.62c.2.04.51-.04.8-.21.29-.18.51-.41.57-.61zm-12.86-3.38l-.17-.01c-.24.01-.45 0-.66-.01 2.76-.29 5.9-1.39 8.84-3.15 2.94-1.76 5.4-4.02 6.95-6.32-.09.19-.19.38-.31.59L35.54 45.9l-10.78-1.46z"/><path style="fill:#F78E1E;" d="M38.49 49.27c.01-.02.02-.02.03-.04l-.62-1.04c-.13.22-.35.43-.62.59-.26.15-.52.24-.77.27l.62 1.04c.2.04.51-.04.8-.21.28-.18.5-.42.56-.61z"/></g></svg>